<?xml version="1.0" standalone="no"?>
<!DOCTYPE svg PUBLIC "-//W3C//DTD SVG 20010904//EN"
 "http://www.w3.org/TR/2001/REC-SVG-20010904/DTD/svg10.dtd">
<svg version="1.0" xmlns="http://www.w3.org/2000/svg"
 width="700.000000pt" height="700.000000pt" viewBox="0 0 700.000000 700.000000"
 preserveAspectRatio="xMidYMid meet">
<metadata>
Created by potrace 1.14, written by Peter Selinger 2001-2017
</metadata>
<g transform="translate(0.000000,700.000000) scale(0.100000,-0.100000)"
fill="#000000" stroke="none">
<path d="M0 3500 l0 -3500 3500 0 3500 0 0 3500 0 3500 -3500 0 -3500 0 0
-3500z m4470 1149 l0 -651 104 98 c195 187 383 268 641 280 465 22 804 -219
879 -626 29 -156 36 -369 36 -1182 l0 -808 -339 0 -340 0 -4 863 c-3 585 -8
881 -16 922 -17 87 -64 178 -115 219 -75 62 -147 89 -255 94 -290 13 -499
-149 -556 -432 -29 -142 -35 -313 -35 -993 l0 -673 -335 0 -335 0 0 1770 0
1770 335 0 335 0 0 -651z m-2020 -298 c184 -32 287 -72 406 -157 129 -91 207
-212 239 -367 31 -156 37 -318 30 -832 -6 -513 2 -761 30 -895 15 -73 67 -226
96 -282 11 -21 19 -42 19 -48 0 -7 -109 -10 -333 -10 l-334 0 -43 139 -43 139
-62 -53 c-250 -212 -538 -306 -843 -276 -235 24 -390 90 -527 226 -151 149
-227 357 -211 576 14 189 76 329 201 455 152 154 305 213 820 318 248 51 422
94 509 126 l59 22 -5 102 c-9 196 -76 275 -262 311 -92 18 -254 20 -328 4
-128 -28 -216 -99 -275 -227 -20 -42 -37 -78 -38 -79 0 -1 -135 22 -300 52
-165 30 -302 55 -307 55 -12 0 22 101 68 199 138 293 362 454 703 506 148 23
161 23 396 20 165 -3 249 -8 335 -24z"/>
<path d="M2389 2970 c-31 -10 -156 -41 -277 -69 -353 -82 -421 -108 -493 -190
-71 -81 -88 -208 -41 -315 31 -69 111 -148 185 -182 55 -25 74 -28 162 -28
112 -1 165 13 278 72 136 70 226 194 247 337 11 82 14 395 3 394 -5 -1 -33 -9
-64 -19z"/>
</g>
</svg>
